<svg xmlns="http://www.w3.org/2000/svg" viewBox="0 0 512 512" style="height: 512px; width: 512px;">
  <path d="M0 0h512v512H0z" fill="transparent" fill-opacity="1"/>
  <g class="" transform="translate(3,-7)" style="filter: drop-shadow(0 0 1rem #00000075);">
    <path d="M196 16a30 30 0 0 0-30 30v120H46a30 30 0 0 0-30 30v120a30 30 0 0 0 30 30h120v120a30 30 0 0 0 30 30h120a30 30 0 0 0 30-30V346h120a30 30 0 0 0 30-30V196a30 30 0 0 0-30-30H346V46a30 30 0 0 0-30-30H196z" fill="#fff" fill-opacity="1"/>
  </g>
</svg>